<?xml version="1.0" encoding="UTF-8" standalone="no"?>
<!DOCTYPE svg PUBLIC "-//W3C//DTD SVG 1.1//EN"
 "http://www.w3.org/Graphics/SVG/1.1/DTD/svg11.dtd">
<!-- Generated by graphviz version 2.43.0 (0)
 -->
<!-- Title: graphname Pages: 1 -->
<svg width="484pt" height="586pt"
 viewBox="0.00 0.00 483.79 585.52" xmlns="http://www.w3.org/2000/svg" xmlns:xlink="http://www.w3.org/1999/xlink">
<g id="graph0" class="graph" transform="scale(1 1) rotate(0) translate(4 581.52)">
<title>graphname</title>
<polygon fill="white" stroke="transparent" points="-4,4 -4,-581.52 479.79,-581.52 479.79,4 -4,4"/>
<!-- 0 -->
<g id="node1" class="node">
<title>0</title>
<ellipse fill="none" stroke="black" cx="158.66" cy="-518.83" rx="72.25" ry="58.88"/>
<text text-anchor="middle" x="158.66" y="-545.13" font-family="Times,serif" font-size="14.00">number = 0</text>
<text text-anchor="middle" x="158.66" y="-530.13" font-family="Times,serif" font-size="14.00">lsize = 2</text>
<text text-anchor="middle" x="158.66" y="-515.13" font-family="Times,serif" font-size="14.00">rsize = 4</text>
<text text-anchor="middle" x="158.66" y="-500.13" font-family="Times,serif" font-size="14.00">lheight = 2</text>
<text text-anchor="middle" x="158.66" y="-485.13" font-family="Times,serif" font-size="14.00">rheight = 3</text>
</g>
<!-- &#45;1 -->
<g id="node2" class="node">
<title>&#45;1</title>
<ellipse fill="none" stroke="black" cx="75.66" cy="-365.45" rx="75.82" ry="58.88"/>
<text text-anchor="middle" x="75.66" y="-391.75" font-family="Times,serif" font-size="14.00">number = &#45;1</text>
<text text-anchor="middle" x="75.66" y="-376.75" font-family="Times,serif" font-size="14.00">lsize = 1</text>
<text text-anchor="middle" x="75.66" y="-361.75" font-family="Times,serif" font-size="14.00">rsize = 0</text>
<text text-anchor="middle" x="75.66" y="-346.75" font-family="Times,serif" font-size="14.00">lheight = 1</text>
<text text-anchor="middle" x="75.66" y="-331.75" font-family="Times,serif" font-size="14.00">rheight = 0</text>
</g>
<!-- 0&#45;&gt;&#45;1 -->
<g id="edge1" class="edge">
<title>0&#45;&gt;&#45;1</title>
<path fill="none" stroke="black" d="M129.63,-464.88C123.22,-453.2 116.38,-440.71 109.79,-428.7"/>
<polygon fill="black" stroke="black" points="112.69,-426.71 104.81,-419.62 106.55,-430.07 112.69,-426.71"/>
</g>
<!-- 2 -->
<g id="node4" class="node">
<title>2</title>
<ellipse fill="none" stroke="black" cx="241.66" cy="-365.45" rx="72.25" ry="58.88"/>
<text text-anchor="middle" x="241.66" y="-391.75" font-family="Times,serif" font-size="14.00">number = 2</text>
<text text-anchor="middle" x="241.66" y="-376.75" font-family="Times,serif" font-size="14.00">lsize = 1</text>
<text text-anchor="middle" x="241.66" y="-361.75" font-family="Times,serif" font-size="14.00">rsize = 2</text>
<text text-anchor="middle" x="241.66" y="-346.75" font-family="Times,serif" font-size="14.00">lheight = 1</text>
<text text-anchor="middle" x="241.66" y="-331.75" font-family="Times,serif" font-size="14.00">rheight = 2</text>
</g>
<!-- 0&#45;&gt;2 -->
<g id="edge3" class="edge">
<title>0&#45;&gt;2</title>
<path fill="none" stroke="black" d="M187.69,-464.88C194.13,-453.13 201.02,-440.57 207.65,-428.49"/>
<polygon fill="black" stroke="black" points="210.91,-429.82 212.65,-419.36 204.77,-426.45 210.91,-429.82"/>
</g>
<!-- &#45;2 -->
<g id="node3" class="node">
<title>&#45;2</title>
<ellipse fill="none" stroke="black" cx="75.66" cy="-212.07" rx="75.82" ry="58.88"/>
<text text-anchor="middle" x="75.66" y="-238.37" font-family="Times,serif" font-size="14.00">number = &#45;2</text>
<text text-anchor="middle" x="75.66" y="-223.37" font-family="Times,serif" font-size="14.00">lsize = 0</text>
<text text-anchor="middle" x="75.66" y="-208.37" font-family="Times,serif" font-size="14.00">rsize = 0</text>
<text text-anchor="middle" x="75.66" y="-193.37" font-family="Times,serif" font-size="14.00">lheight = 0</text>
<text text-anchor="middle" x="75.66" y="-178.37" font-family="Times,serif" font-size="14.00">rheight = 0</text>
</g>
<!-- &#45;1&#45;&gt;&#45;2 -->
<g id="edge2" class="edge">
<title>&#45;1&#45;&gt;&#45;2</title>
<path fill="none" stroke="black" d="M75.66,-306.35C75.66,-298.12 75.66,-289.58 75.66,-281.17"/>
<polygon fill="black" stroke="black" points="79.16,-281.01 75.66,-271.01 72.16,-281.01 79.16,-281.01"/>
</g>
<!-- 1 -->
<g id="node5" class="node">
<title>1</title>
<ellipse fill="none" stroke="black" cx="241.66" cy="-212.07" rx="72.25" ry="58.88"/>
<text text-anchor="middle" x="241.66" y="-238.37" font-family="Times,serif" font-size="14.00">number = 1</text>
<text text-anchor="middle" x="241.66" y="-223.37" font-family="Times,serif" font-size="14.00">lsize = 0</text>
<text text-anchor="middle" x="241.66" y="-208.37" font-family="Times,serif" font-size="14.00">rsize = 0</text>
<text text-anchor="middle" x="241.66" y="-193.37" font-family="Times,serif" font-size="14.00">lheight = 0</text>
<text text-anchor="middle" x="241.66" y="-178.37" font-family="Times,serif" font-size="14.00">rheight = 0</text>
</g>
<!-- 2&#45;&gt;1 -->
<g id="edge4" class="edge">
<title>2&#45;&gt;1</title>
<path fill="none" stroke="black" d="M241.66,-306.35C241.66,-298.12 241.66,-289.58 241.66,-281.17"/>
<polygon fill="black" stroke="black" points="245.16,-281.01 241.66,-271.01 238.16,-281.01 245.16,-281.01"/>
</g>
<!-- 3 -->
<g id="node6" class="node">
<title>3</title>
<ellipse fill="none" stroke="black" cx="403.66" cy="-212.07" rx="72.25" ry="58.88"/>
<text text-anchor="middle" x="403.66" y="-238.37" font-family="Times,serif" font-size="14.00">number = 3</text>
<text text-anchor="middle" x="403.66" y="-223.37" font-family="Times,serif" font-size="14.00">lsize = 0</text>
<text text-anchor="middle" x="403.66" y="-208.37" font-family="Times,serif" font-size="14.00">rsize = 1</text>
<text text-anchor="middle" x="403.66" y="-193.37" font-family="Times,serif" font-size="14.00">lheight = 0</text>
<text text-anchor="middle" x="403.66" y="-178.37" font-family="Times,serif" font-size="14.00">rheight = 1</text>
</g>
<!-- 2&#45;&gt;3 -->
<g id="edge5" class="edge">
<title>2&#45;&gt;3</title>
<path fill="none" stroke="black" d="M288.52,-320.66C307.49,-302.93 329.53,-282.34 349.21,-263.95"/>
<polygon fill="black" stroke="black" points="351.71,-266.4 356.63,-257.02 346.93,-261.29 351.71,-266.4"/>
</g>
<!-- 4 -->
<g id="node7" class="node">
<title>4</title>
<ellipse fill="none" stroke="black" cx="403.66" cy="-58.69" rx="72.25" ry="58.88"/>
<text text-anchor="middle" x="403.66" y="-84.99" font-family="Times,serif" font-size="14.00">number = 4</text>
<text text-anchor="middle" x="403.66" y="-69.99" font-family="Times,serif" font-size="14.00">lsize = 0</text>
<text text-anchor="middle" x="403.66" y="-54.99" font-family="Times,serif" font-size="14.00">rsize = 0</text>
<text text-anchor="middle" x="403.66" y="-39.99" font-family="Times,serif" font-size="14.00">lheight = 0</text>
<text text-anchor="middle" x="403.66" y="-24.99" font-family="Times,serif" font-size="14.00">rheight = 0</text>
</g>
<!-- 3&#45;&gt;4 -->
<g id="edge6" class="edge">
<title>3&#45;&gt;4</title>
<path fill="none" stroke="black" d="M403.66,-152.98C403.66,-144.74 403.66,-136.2 403.66,-127.79"/>
<polygon fill="black" stroke="black" points="407.16,-127.63 403.66,-117.63 400.16,-127.63 407.16,-127.63"/>
</g>
</g>
</svg>
